<svg width="148" height="124" viewBox="0 0 148 124" fill="none" xmlns="http://www.w3.org/2000/svg">
<g clip-path="url(#clip0)">
<path d="M133 16H117.425V3C117.425 1.35 116.075 0 114.425 0H90.425C88.775 0 87.425 1.35 87.425 3V16H60.575V3C60.575 1.35 59.225 0 57.575 0H33.575C31.925 0 30.575 1.35 30.575 3V16H15C6.72 16 0 22.72 0 31V109C0 117.28 6.72 124 15 124H133C141.28 124 148 117.28 148 109V31C148 22.72 141.28 16 133 16Z" fill="black"/>
<path d="M74.9897 62.2997L78.2195 62.1045L77.7811 58.8987C77.0279 53.3906 74.3444 48.8036 69.8749 45.6539C65.4712 42.5506 59.5662 41 52.551 41C45.4553 41 39.2352 42.6073 34.7045 45.8338C30.0783 49.1283 27.3784 54.0149 27.3953 59.972C27.3778 64.5193 28.8587 68.4931 32.0092 71.5814C34.8738 74.3894 38.9021 76.2538 43.8343 77.3579L43.1055 77.3955L28.8455 78.1307L25.5795 78.2991L26.0284 81.5385C26.8245 87.2842 29.7538 92.0071 34.4895 95.2282C39.1568 98.4028 45.3903 100 52.7212 100C59.9599 100 66.4279 98.1913 71.1777 94.7788C75.9897 91.3217 78.9793 86.2337 79 80.1009L79 80.0889L78.9999 80.077C78.9795 75.6194 77.4461 71.8249 74.2605 68.9093C71.1865 66.096 66.8133 64.3199 61.4803 63.248L61.4713 63.2462L60.9693 63.1469L61.7168 63.1017L74.9897 62.2997ZM45.7673 77.7517L53.9767 79.3578C53.9778 79.358 53.9788 79.3582 53.9798 79.3584C56.0752 79.7733 57.2058 80.2913 57.7675 80.7231C58.146 81.0141 58.2408 81.2256 58.2609 81.5249C58.2365 81.8122 58.0745 82.2463 57.3014 82.727C56.4204 83.2747 54.904 83.7408 52.7552 83.7408C50.56 83.7408 49.0357 83.2769 48.0501 82.6275C47.1296 82.021 46.483 81.1304 46.1948 79.7698L45.7673 77.7517ZM59.0409 62.7654L52.0319 61.3791C49.7682 60.8954 48.6563 60.351 48.1513 59.9451C47.8338 59.69 47.7865 59.5489 47.7912 59.2128L47.7917 59.1755L47.7913 59.1383C47.789 58.9374 47.85 58.5345 48.6628 58.0354C49.5164 57.5112 50.9427 57.0921 52.7893 57.0921C56.6247 57.0921 58.2295 59.0097 58.6035 60.7407L59.0409 62.7654Z" fill="white" stroke="black" stroke-width="6"/>
<path d="M121.995 77.3525L122.174 74.1835H119H105.619H103.04L102.653 76.7331C102.321 78.9177 101.482 80.3802 100.475 81.2892C99.4783 82.1891 98.1069 82.7383 96.3315 82.7383C93.9702 82.7383 92.1484 81.7954 90.8173 79.9592C89.4089 78.0162 88.4133 74.8584 88.4133 70.3329C88.4133 65.8867 89.4119 62.7735 90.8199 60.8539C92.1546 59.0342 93.9817 58.0946 96.3315 58.0946C98.2258 58.0946 99.5956 58.7041 100.568 59.6287C101.569 60.5806 102.347 62.0606 102.652 64.0937L103.034 66.6494H105.619H119H122.155L121.996 63.4981C121.658 56.8089 118.937 51.107 114.288 47.1029C109.664 43.1204 103.351 41 96.0985 41C87.6132 41 80.5053 43.9729 75.5346 49.3222C70.5873 54.6464 68 62.0598 68 70.5334C68 78.9323 70.5412 86.3301 75.4776 91.6579C80.4401 97.0138 87.5687 100 96.165 100C103.563 100 109.858 97.8133 114.429 93.7599C119.014 89.6941 121.622 83.9606 121.995 77.3525Z" fill="white" stroke="black" stroke-width="6"/>
</g>
<defs>
<clipPath id="clip0">
<rect width="148" height="124" fill="white"/>
</clipPath>
</defs>
</svg>
