<svg width="532" height="200" viewBox="0 0 532 200" fill="none" xmlns="http://www.w3.org/2000/svg">
<path d="M184 54H168.425V41C168.425 39.35 167.075 38 165.425 38H141.425C139.775 38 138.425 39.35 138.425 41V54H111.575V41C111.575 39.35 110.225 38 108.575 38H84.575C82.925 38 81.575 39.35 81.575 41V54H66C57.72 54 51 60.72 51 69V147C51 155.28 57.72 162 66 162H184C192.28 162 199 155.28 199 147V69C199 60.72 192.28 54 184 54Z" fill="black"/>
<path d="M125.99 100.3L129.22 100.105L128.781 96.8987C128.028 91.3906 125.344 86.8036 120.875 83.6539C116.471 80.5506 110.566 79 103.551 79C96.4553 79 90.2352 80.6073 85.7045 83.8338C81.0783 87.1283 78.3784 92.0149 78.3953 97.972C78.3778 102.519 79.8587 106.493 83.0092 109.581C85.8738 112.389 89.9021 114.254 94.8343 115.358L94.1055 115.396L79.8455 116.131L76.5795 116.299L77.0284 119.538C77.8245 125.284 80.7538 130.007 85.4895 133.228C90.1568 136.403 96.3903 138 103.721 138C110.96 138 117.428 136.191 122.178 132.779C126.99 129.322 129.979 124.234 130 118.101L130 118.089L130 118.077C129.98 113.619 128.446 109.825 125.26 106.909C122.187 104.096 117.813 102.32 112.48 101.248L112.471 101.246L111.969 101.147L112.717 101.102L125.99 100.3ZM96.7673 115.752L104.977 117.358C104.978 117.358 104.979 117.358 104.98 117.358C107.075 117.773 108.206 118.291 108.767 118.723C109.146 119.014 109.241 119.226 109.261 119.525C109.236 119.812 109.075 120.246 108.301 120.727C107.42 121.275 105.904 121.741 103.755 121.741C101.56 121.741 100.036 121.277 99.0501 120.628C98.1296 120.021 97.483 119.13 97.1948 117.77L96.7673 115.752ZM110.041 100.765L103.032 99.3791C100.768 98.8954 99.6563 98.351 99.1513 97.9452C98.8338 97.69 98.7865 97.5489 98.7912 97.2128L98.7917 97.1755L98.7913 97.1383C98.789 96.9374 98.85 96.5345 99.6628 96.0354C100.516 95.5112 101.943 95.0921 103.789 95.0921C107.625 95.0921 109.23 97.0097 109.603 98.7407L110.041 100.765Z" fill="white" stroke="black" stroke-width="6"/>
<path d="M172.995 115.353L173.174 112.183H170H156.619H154.04L153.653 114.733C153.321 116.918 152.482 118.38 151.475 119.289C150.478 120.189 149.107 120.738 147.331 120.738C144.97 120.738 143.148 119.795 141.817 117.959C140.409 116.016 139.413 112.858 139.413 108.333C139.413 103.887 140.412 100.774 141.82 98.8539C143.155 97.0342 144.982 96.0946 147.331 96.0946C149.226 96.0946 150.596 96.7041 151.568 97.6287C152.569 98.5806 153.347 100.061 153.652 102.094L154.034 104.649H156.619H170H173.155L172.996 101.498C172.658 94.809 169.937 89.107 165.288 85.1029C160.664 81.1204 154.351 79 147.098 79C138.613 79 131.505 81.9729 126.535 87.3222C121.587 92.6464 119 100.06 119 108.533C119 116.932 121.541 124.33 126.478 129.658C131.44 135.014 138.569 138 147.165 138C154.563 138 160.858 135.813 165.429 131.76C170.014 127.694 172.622 121.961 172.995 115.353Z" fill="white" stroke="black" stroke-width="6"/>
<path d="M253.209 74.1276H265.33C265.227 64.3337 257.428 57.7106 245.256 57.7106C233.288 57.7106 224.671 64.2314 224.747 73.9742C224.722 81.927 230.296 86.402 239.349 88.4733L244.821 89.7519C250.575 91.0816 253.158 92.6415 253.209 95.5822C253.158 98.7787 250.166 101.003 245.077 101.003C239.477 101.003 235.794 98.3951 235.513 93.3575H223.392C223.546 105.606 232.061 111.462 245.23 111.462C258.272 111.462 265.994 105.555 266.046 95.6078C265.994 87.2459 260.343 82.1315 250.012 79.8557L245.512 78.8328C240.755 77.8099 237.738 76.2245 237.84 73.1047C237.866 70.2407 240.321 68.1694 245.23 68.1694C250.166 68.1694 252.876 70.3941 253.209 74.1276Z" fill="black"/>
<path d="M284.943 58.4266H272.439V110.797H284.943V58.4266Z" fill="black"/>
<path d="M292.902 110.797H305.407V71.5193H292.902V110.797ZM299.167 66.942C302.722 66.942 305.586 64.2569 305.586 60.9582C305.586 57.6595 302.722 55 299.167 55C295.638 55 292.749 57.6595 292.749 60.9582C292.749 64.2569 295.638 66.942 299.167 66.942Z" fill="black"/>
<path d="M331.701 111.539C342.748 111.539 349.601 105.12 349.933 95.4032H338.247C337.787 99.5714 335.281 101.847 331.854 101.847C327.456 101.847 324.592 98.1394 324.592 91.1583C324.592 84.2284 327.482 80.5205 331.854 80.5205C335.434 80.5205 337.761 82.9498 338.247 86.9646H349.933C349.652 77.2985 342.594 71.0079 331.675 71.0079C319.324 71.0079 311.857 79.2419 311.857 91.2862C311.857 103.279 319.273 111.539 331.701 111.539Z" fill="black"/>
<path d="M356.333 110.797H368.837V99.0088L371.369 95.9402L380.728 110.797H395.176L380.677 88.6267L394.614 71.5193H380.447L369.4 85.5837H368.837V58.4266H356.333V110.797Z" fill="black"/>
<path d="M446.243 58.4266V91.1072C446.243 96.554 442.381 100.466 436.73 100.466C431.053 100.466 427.217 96.554 427.217 91.1072V58.4266H414.559V92.2068C414.559 103.919 423.407 111.462 436.73 111.462C449.951 111.462 458.875 103.919 458.875 92.2068V58.4266H446.243Z" fill="black"/>
<path d="M479.467 58.4266H466.809V110.797H479.467V58.4266Z" fill="black"/>
<path d="M234.189 153.288C239.862 153.288 243.534 149.881 244.05 145.208H239.502C238.908 147.802 236.893 149.334 234.22 149.334C230.267 149.334 227.719 146.037 227.719 140.801C227.719 135.66 230.313 132.425 234.22 132.425C237.189 132.425 239.002 134.301 239.502 136.551H244.05C243.55 131.707 239.596 128.487 234.142 128.487C227.376 128.487 223 133.582 223 140.911C223 148.146 227.219 153.288 234.189 153.288Z" fill="black"/>
<path d="M259.157 153.288C265.924 153.288 270.346 148.334 270.346 140.911C270.346 133.441 265.924 128.487 259.157 128.487C252.391 128.487 247.968 133.441 247.968 140.911C247.968 148.334 252.391 153.288 259.157 153.288ZM259.173 149.365C254.75 149.365 252.688 145.505 252.688 140.895C252.688 136.301 254.75 132.394 259.173 132.394C263.564 132.394 265.627 136.301 265.627 140.895C265.627 145.505 263.564 149.365 259.173 149.365Z" fill="black"/>
<path d="M275.562 152.803H280.234V138.004C280.234 134.769 282.5 132.519 285.157 132.519C287.751 132.519 289.548 134.238 289.548 136.848V152.803H294.205V137.504C294.205 134.613 295.971 132.519 299.018 132.519C301.487 132.519 303.519 133.894 303.519 137.145V152.803H308.191V136.707C308.191 131.222 305.128 128.487 300.784 128.487C297.33 128.487 294.736 130.144 293.58 132.707H293.33C292.283 130.081 290.079 128.487 286.876 128.487C283.704 128.487 281.344 130.066 280.344 132.707H280.047V128.8H275.562V152.803Z" fill="black"/>
<path d="M314.454 161.804H319.126V149.068H319.408C320.252 150.6 321.971 153.272 326.346 153.272C332.159 153.272 336.379 148.615 336.379 140.848C336.379 133.066 332.097 128.487 326.299 128.487C321.845 128.487 320.236 131.206 319.408 132.691H319.017V128.8H314.454V161.804ZM319.033 140.801C319.033 135.785 321.22 132.457 325.299 132.457C329.534 132.457 331.659 136.035 331.659 140.801C331.659 145.615 329.472 149.287 325.299 149.287C321.283 149.287 319.033 145.849 319.033 140.801Z" fill="black"/>
<path d="M351.725 153.288C358.491 153.288 362.914 148.334 362.914 140.911C362.914 133.441 358.491 128.487 351.725 128.487C344.958 128.487 340.536 133.441 340.536 140.911C340.536 148.334 344.958 153.288 351.725 153.288ZM351.74 149.365C347.318 149.365 345.255 145.505 345.255 140.895C345.255 136.301 347.318 132.394 351.74 132.394C356.131 132.394 358.194 136.301 358.194 140.895C358.194 145.505 356.131 149.365 351.74 149.365Z" fill="black"/>
<path d="M372.802 138.551C372.802 134.723 375.146 132.535 378.396 132.535C381.568 132.535 383.491 134.613 383.491 138.098V152.803H388.163V137.535C388.163 131.597 384.897 128.487 379.99 128.487C376.38 128.487 374.021 130.159 372.911 132.707H372.614V128.8H368.129V152.803H372.802V138.551Z" fill="black"/>
<path d="M404.775 153.288C410.01 153.288 413.713 150.709 414.776 146.802L410.354 146.005C409.51 148.271 407.478 149.428 404.822 149.428C400.821 149.428 398.133 146.834 398.008 142.208H415.073V140.551C415.073 131.878 409.885 128.487 404.447 128.487C397.758 128.487 393.351 133.582 393.351 140.958C393.351 148.412 397.696 153.288 404.775 153.288ZM398.024 138.707C398.211 135.301 400.68 132.347 404.478 132.347C408.103 132.347 410.479 135.035 410.494 138.707H398.024Z" fill="black"/>
<path d="M424.93 138.551C424.93 134.723 427.274 132.535 430.524 132.535C433.697 132.535 435.619 134.613 435.619 138.098V152.803H440.291V137.535C440.291 131.597 437.025 128.487 432.118 128.487C428.508 128.487 426.149 130.159 425.039 132.707H424.742V128.8H420.257V152.803H424.93V138.551Z" fill="black"/>
<path d="M457.762 128.8H452.84V123.049H448.167V128.8H444.651V132.55H448.167V146.724C448.152 151.084 451.48 153.194 455.168 153.116C456.653 153.1 457.653 152.819 458.2 152.616L457.356 148.756C457.044 148.818 456.465 148.959 455.715 148.959C454.199 148.959 452.84 148.459 452.84 145.755V132.55H457.762V128.8Z" fill="black"/>
<path d="M480.531 134.66C479.562 130.925 476.64 128.487 471.452 128.487C466.029 128.487 462.185 131.347 462.185 135.598C462.185 139.004 464.248 141.27 468.748 142.27L472.811 143.161C475.124 143.677 476.202 144.708 476.202 146.208C476.202 148.068 474.218 149.521 471.155 149.521C468.358 149.521 466.561 148.318 465.998 145.958L461.482 146.646C462.263 150.897 465.795 153.288 471.186 153.288C476.984 153.288 481 150.209 481 145.865C481 142.474 478.843 140.38 474.437 139.364L470.624 138.489C467.983 137.864 466.842 136.973 466.857 135.348C466.842 133.504 468.842 132.191 471.499 132.191C474.405 132.191 475.749 133.801 476.296 135.41L480.531 134.66Z" fill="black"/>
</svg>
