<svg width="611" height="282" viewBox="0 0 611 282" fill="none" xmlns="http://www.w3.org/2000/svg">
<rect x="13" width="582" height="256" fill="#FFEEFD"/>
<path d="M222 95H206.425V82C206.425 80.35 205.075 79 203.425 79H179.425C177.775 79 176.425 80.35 176.425 82V95H149.575V82C149.575 80.35 148.225 79 146.575 79H122.575C120.925 79 119.575 80.35 119.575 82V95H104C95.72 95 89 101.72 89 110V188C89 196.28 95.72 203 104 203H222C230.28 203 237 196.28 237 188V110C237 101.72 230.28 95 222 95Z" fill="black"/>
<path d="M163.99 141.3L167.22 141.105L166.781 137.899C166.028 132.391 163.344 127.804 158.875 124.654C154.471 121.551 148.566 120 141.551 120C134.455 120 128.235 121.607 123.705 124.834C119.078 128.128 116.378 133.015 116.395 138.972C116.378 143.519 117.859 147.493 121.009 150.581C123.874 153.389 127.902 155.254 132.834 156.358L132.105 156.396L117.846 157.131L114.58 157.299L115.028 160.538C115.825 166.284 118.754 171.007 123.49 174.228C128.157 177.403 134.39 179 141.721 179C148.96 179 155.428 177.191 160.178 173.779C164.99 170.322 167.979 165.234 168 159.101L168 159.089L168 159.077C167.98 154.619 166.446 150.825 163.26 147.909C160.187 145.096 155.813 143.32 150.48 142.248L150.471 142.246L149.969 142.147L150.717 142.102L163.99 141.3ZM134.767 156.752L142.977 158.358C142.978 158.358 142.979 158.358 142.98 158.358C145.075 158.773 146.206 159.291 146.767 159.723C147.146 160.014 147.241 160.226 147.261 160.525C147.236 160.812 147.075 161.246 146.301 161.727C145.42 162.275 143.904 162.741 141.755 162.741C139.56 162.741 138.036 162.277 137.05 161.628C136.13 161.021 135.483 160.13 135.195 158.77L134.767 156.752ZM148.041 141.765L141.032 140.379C138.768 139.895 137.656 139.351 137.151 138.945C136.834 138.69 136.787 138.549 136.791 138.213L136.792 138.176L136.791 138.138C136.789 137.937 136.85 137.534 137.663 137.035C138.516 136.511 139.943 136.092 141.789 136.092C145.625 136.092 147.23 138.01 147.603 139.741L148.041 141.765Z" fill="white" stroke="black" stroke-width="6"/>
<path d="M210.995 156.353L211.174 153.183H208H194.619H192.04L191.653 155.733C191.321 157.918 190.482 159.38 189.475 160.289C188.478 161.189 187.107 161.738 185.331 161.738C182.97 161.738 181.148 160.795 179.817 158.959C178.409 157.016 177.413 153.858 177.413 149.333C177.413 144.887 178.412 141.774 179.82 139.854C181.155 138.034 182.982 137.095 185.331 137.095C187.226 137.095 188.596 137.704 189.568 138.629C190.569 139.581 191.347 141.061 191.652 143.094L192.034 145.649H194.619H208H211.155L210.996 142.498C210.658 135.809 207.937 130.107 203.288 126.103C198.664 122.12 192.351 120 185.098 120C176.613 120 169.505 122.973 164.535 128.322C159.587 133.646 157 141.06 157 149.533C157 157.932 159.541 165.33 164.478 170.658C169.44 176.014 176.569 179 185.165 179C192.563 179 198.858 176.813 203.429 172.76C208.014 168.694 210.622 162.961 210.995 156.353Z" fill="white" stroke="black" stroke-width="6"/>
<path d="M291.209 115.128H303.33C303.227 105.334 295.428 98.7106 283.256 98.7106C271.288 98.7106 262.671 105.231 262.747 114.974C262.722 122.927 268.296 127.402 277.349 129.473L282.821 130.752C288.575 132.082 291.158 133.641 291.209 136.582C291.158 139.779 288.166 142.003 283.077 142.003C277.477 142.003 273.794 139.395 273.513 134.358H261.392C261.546 146.606 270.061 152.462 283.23 152.462C296.272 152.462 303.994 146.555 304.046 136.608C303.994 128.246 298.343 123.132 288.012 120.856L283.512 119.833C278.755 118.81 275.738 117.224 275.84 114.105C275.866 111.241 278.321 109.169 283.23 109.169C288.166 109.169 290.876 111.394 291.209 115.128Z" fill="black"/>
<path d="M322.943 99.4266H310.439V151.797H322.943V99.4266Z" fill="black"/>
<path d="M330.902 151.797H343.407V112.519H330.902V151.797ZM337.167 107.942C340.722 107.942 343.586 105.257 343.586 101.958C343.586 98.6595 340.722 96 337.167 96C333.638 96 330.749 98.6595 330.749 101.958C330.749 105.257 333.638 107.942 337.167 107.942Z" fill="black"/>
<path d="M369.701 152.539C380.748 152.539 387.601 146.12 387.933 136.403H376.247C375.787 140.571 373.281 142.847 369.854 142.847C365.456 142.847 362.592 139.139 362.592 132.158C362.592 125.228 365.482 121.521 369.854 121.521C373.434 121.521 375.761 123.95 376.247 127.965H387.933C387.652 118.298 380.594 112.008 369.675 112.008C357.324 112.008 349.857 120.242 349.857 132.286C349.857 144.279 357.273 152.539 369.701 152.539Z" fill="black"/>
<path d="M394.333 151.797H406.837V140.009L409.369 136.94L418.728 151.797H433.176L418.677 129.627L432.614 112.519H418.447L407.4 126.584H406.837V99.4266H394.333V151.797Z" fill="black"/>
<path d="M484.243 99.4266V132.107C484.243 137.554 480.381 141.466 474.73 141.466C469.053 141.466 465.217 137.554 465.217 132.107V99.4266H452.559V133.207C452.559 144.919 461.407 152.462 474.73 152.462C487.951 152.462 496.875 144.919 496.875 133.207V99.4266H484.243Z" fill="black"/>
<path d="M517.467 99.4266H504.809V151.797H517.467V99.4266Z" fill="black"/>
<path d="M272.189 194.288C277.862 194.288 281.534 190.881 282.05 186.208H277.502C276.908 188.802 274.893 190.334 272.22 190.334C268.267 190.334 265.719 187.037 265.719 181.801C265.719 176.66 268.313 173.425 272.22 173.425C275.189 173.425 277.002 175.301 277.502 177.551H282.05C281.55 172.707 277.596 169.487 272.142 169.487C265.376 169.487 261 174.582 261 181.911C261 189.146 265.219 194.288 272.189 194.288Z" fill="black"/>
<path d="M297.157 194.288C303.924 194.288 308.346 189.334 308.346 181.911C308.346 174.441 303.924 169.487 297.157 169.487C290.391 169.487 285.968 174.441 285.968 181.911C285.968 189.334 290.391 194.288 297.157 194.288ZM297.173 190.365C292.75 190.365 290.688 186.505 290.688 181.895C290.688 177.301 292.75 173.394 297.173 173.394C301.564 173.394 303.627 177.301 303.627 181.895C303.627 186.505 301.564 190.365 297.173 190.365Z" fill="black"/>
<path d="M313.562 193.803H318.234V179.004C318.234 175.769 320.5 173.519 323.157 173.519C325.751 173.519 327.548 175.238 327.548 177.848V193.803H332.205V178.504C332.205 175.613 333.971 173.519 337.018 173.519C339.487 173.519 341.519 174.894 341.519 178.145V193.803H346.191V177.707C346.191 172.222 343.128 169.487 338.784 169.487C335.33 169.487 332.736 171.144 331.58 173.707H331.33C330.283 171.081 328.079 169.487 324.876 169.487C321.704 169.487 319.344 171.066 318.344 173.707H318.047V169.8H313.562V193.803Z" fill="black"/>
<path d="M352.454 202.804H357.126V190.068H357.408C358.252 191.6 359.971 194.272 364.346 194.272C370.159 194.272 374.379 189.615 374.379 181.848C374.379 174.066 370.097 169.487 364.299 169.487C359.845 169.487 358.236 172.206 357.408 173.691H357.017V169.8H352.454V202.804ZM357.033 181.801C357.033 176.785 359.22 173.457 363.299 173.457C367.534 173.457 369.659 177.035 369.659 181.801C369.659 186.615 367.472 190.287 363.299 190.287C359.283 190.287 357.033 186.849 357.033 181.801Z" fill="black"/>
<path d="M389.725 194.288C396.491 194.288 400.914 189.334 400.914 181.911C400.914 174.441 396.491 169.487 389.725 169.487C382.958 169.487 378.536 174.441 378.536 181.911C378.536 189.334 382.958 194.288 389.725 194.288ZM389.74 190.365C385.318 190.365 383.255 186.505 383.255 181.895C383.255 177.301 385.318 173.394 389.74 173.394C394.131 173.394 396.194 177.301 396.194 181.895C396.194 186.505 394.131 190.365 389.74 190.365Z" fill="black"/>
<path d="M410.802 179.551C410.802 175.723 413.146 173.535 416.396 173.535C419.568 173.535 421.491 175.613 421.491 179.098V193.803H426.163V178.535C426.163 172.597 422.897 169.487 417.99 169.487C414.38 169.487 412.021 171.159 410.911 173.707H410.614V169.8H406.129V193.803H410.802V179.551Z" fill="black"/>
<path d="M442.775 194.288C448.01 194.288 451.713 191.709 452.776 187.802L448.354 187.005C447.51 189.271 445.478 190.428 442.822 190.428C438.821 190.428 436.133 187.834 436.008 183.208H453.073V181.551C453.073 172.878 447.885 169.487 442.447 169.487C435.758 169.487 431.351 174.582 431.351 181.958C431.351 189.412 435.696 194.288 442.775 194.288ZM436.024 179.707C436.211 176.301 438.68 173.347 442.478 173.347C446.103 173.347 448.479 176.035 448.494 179.707H436.024Z" fill="black"/>
<path d="M462.93 179.551C462.93 175.723 465.274 173.535 468.524 173.535C471.697 173.535 473.619 175.613 473.619 179.098V193.803H478.291V178.535C478.291 172.597 475.025 169.487 470.118 169.487C466.508 169.487 464.149 171.159 463.039 173.707H462.742V169.8H458.257V193.803H462.93V179.551Z" fill="black"/>
<path d="M495.762 169.8H490.84V164.049H486.167V169.8H482.651V173.55H486.167V187.724C486.152 192.084 489.48 194.194 493.168 194.116C494.653 194.1 495.653 193.819 496.2 193.616L495.356 189.756C495.044 189.818 494.465 189.959 493.715 189.959C492.199 189.959 490.84 189.459 490.84 186.755V173.55H495.762V169.8Z" fill="black"/>
<path d="M518.531 175.66C517.562 171.925 514.64 169.487 509.452 169.487C504.029 169.487 500.185 172.347 500.185 176.598C500.185 180.004 502.248 182.27 506.748 183.27L510.811 184.161C513.124 184.677 514.202 185.708 514.202 187.208C514.202 189.068 512.218 190.521 509.155 190.521C506.358 190.521 504.561 189.318 503.998 186.958L499.482 187.646C500.263 191.897 503.795 194.288 509.186 194.288C514.984 194.288 519 191.209 519 186.865C519 183.474 516.843 181.38 512.437 180.364L508.624 179.489C505.983 178.864 504.842 177.973 504.857 176.348C504.842 174.504 506.842 173.191 509.499 173.191C512.405 173.191 513.749 174.801 514.296 176.41L518.531 175.66Z" fill="black"/>
<path d="M0 57H611" stroke="#FF82F2"/>
<path d="M0 245H611" stroke="#FF82F2"/>
<path d="M37 0L37 282" stroke="#FF82F2"/>
<path d="M571 0L571 282" stroke="#FF82F2"/>
</svg>

